<svg xmlns="http://www.w3.org/2000/svg" xmlns:xlink="http://www.w3.org/1999/xlink" version="1.1" id="Layer_1" x="0px" y="0px" viewBox="0 0 70 70" style="enable-background:new 0 0 70 70;" xml:space="preserve">
<style type="text/css">
	.st0{fill:#faf7f5;}
</style>
<path class="st0" d="M69.5,22.9L53.9,13V8.7V1.1c0-0.6-0.5-1.1-1.1-1.1H17.2c-0.6,0-1.1,0.5-1.1,1.1v7.6V13L0.5,22.9  C0.2,23.1,0,23.5,0,23.8v41.8C0,68,2,70,4.4,70h12.8h35.7h12.8c2.4,0,4.4-2,4.4-4.4V23.8C70,23.5,69.8,23.1,69.5,22.9 M16.1,67.8  H4.4c-1.2,0-2.2-1-2.2-2.2V24.4l13.9-8.8V67.8z M30,53.3h10v14.5H30V53.3z M42.2,67.8V52.3c0-0.6-0.5-1.1-1.1-1.1H28.9  c-0.6,0-1.1,0.5-1.1,1.1v15.5h-9.5v-58h25.6c0.6,0,1.1-0.5,1.1-1.1s-0.5-1.1-1.1-1.1H18.3V2.2h33.5v5.4h-3.3c-0.6,0-1.1,0.5-1.1,1.1  s0.5,1.1,1.1,1.1h3.3v58H42.2z M67.8,65.6c0,1.2-1,2.2-2.2,2.2H53.9V15.6l13.9,8.8V65.6L67.8,65.6z" fill="#000000"/>
<path class="st0" d="M57.6,37.5h6.5c0.6,0,1.1-0.5,1.1-1.1V30c0-0.6-0.5-1.1-1.1-1.1h-6.5c-0.6,0-1.1,0.5-1.1,1.1v6.5  C56.5,37,57,37.5,57.6,37.5 M58.7,31H63v4.3h-4.3V31z" fill="#000000"/>
<path class="st0" d="M57.6,50.7h6.5c0.6,0,1.1-0.5,1.1-1.1v-6.5c0-0.6-0.5-1.1-1.1-1.1h-6.5c-0.6,0-1.1,0.5-1.1,1.1v6.5  C56.5,50.2,57,50.7,57.6,50.7 M58.7,44.2H63v4.3h-4.3V44.2z" fill="#000000"/>
<path class="st0" d="M57.6,63.9h6.5c0.6,0,1.1-0.5,1.1-1.1v-6.5c0-0.6-0.5-1.1-1.1-1.1h-6.5c-0.6,0-1.1,0.5-1.1,1.1v6.5  C56.5,63.4,57,63.9,57.6,63.9 M58.7,57.4H63v4.3h-4.3V57.4z" fill="#000000"/>
<path class="st0" d="M5.9,37.5h6.5c0.6,0,1.1-0.5,1.1-1.1V30c0-0.6-0.5-1.1-1.1-1.1H5.9c-0.6,0-1.1,0.5-1.1,1.1v6.5  C4.8,37,5.3,37.5,5.9,37.5 M7,31h4.3v4.3H7V31z" fill="#000000"/>
<path class="st0" d="M5.9,50.7h6.5c0.6,0,1.1-0.5,1.1-1.1v-6.5c0-0.6-0.5-1.1-1.1-1.1H5.9c-0.6,0-1.1,0.5-1.1,1.1v6.5  C4.8,50.2,5.3,50.7,5.9,50.7 M7,44.2h4.3v4.3H7V44.2z" fill="#000000"/>
<path class="st0" d="M5.9,63.9h6.5c0.6,0,1.1-0.5,1.1-1.1v-6.5c0-0.6-0.5-1.1-1.1-1.1H5.9c-0.6,0-1.1,0.5-1.1,1.1v6.5  C4.8,63.4,5.3,63.9,5.9,63.9 M7,57.4h4.3v4.3H7V57.4z" fill="#000000"/>
<path class="st0" d="M44.8,36.4h-6.5c-0.6,0-1.1,0.5-1.1,1.1V44c0,0.6,0.5,1.1,1.1,1.1h6.5c0.6,0,1.1-0.5,1.1-1.1v-6.5  C45.9,36.9,45.4,36.4,44.8,36.4 M43.7,42.9h-4.3v-4.3h4.3V42.9z" fill="#000000"/>
<path class="st0" d="M31.7,36.4h-6.5c-0.6,0-1.1,0.5-1.1,1.1V44c0,0.6,0.5,1.1,1.1,1.1h6.5c0.6,0,1.1-0.5,1.1-1.1v-6.5  C32.7,36.9,32.3,36.4,31.7,36.4 M30.6,42.9h-4.3v-4.3h4.3C30.6,38.6,30.6,42.9,30.6,42.9z" fill="#000000"/>
<path class="st0" d="M42.7,23.3c0-4.3-3.5-7.7-7.7-7.7s-7.7,3.5-7.7,7.7S30.7,31,35,31S42.7,27.6,42.7,23.3 M35,28.8  c-3,0-5.5-2.5-5.5-5.5s2.5-5.5,5.5-5.5s5.5,2.5,5.5,5.5C40.5,26.4,38,28.8,35,28.8" fill="#000000"/>
</svg>