<svg xmlns="http://www.w3.org/2000/svg" xmlns:xlink="http://www.w3.org/1999/xlink" version="1.1" id="Layer_1" x="0px" y="0px" viewBox="0 0 70 61.5" style="enable-background:new 0 0 70 61.5;" xml:space="preserve">
<style type="text/css">
	.st0{fill:#ebe7e5;}
</style>
<path class="st0" d="M32.6,16c3.5-1.1,7.2-1.5,10.8-0.9c0.6,0.1,1.2-0.3,1.3-1c0.1-0.6-0.3-1.2-1-1.3c-3.9-0.6-7.8-0.3-11.5,0.9  c-0.6,0.2-0.9,0.9-0.7,1.5C31.7,15.6,32.1,16,32.6,16" fill="#000000"/>
<path class="st0" d="M32.6,21.8c2.7-0.9,5.6-1.3,8.5-1.2c0.6,0,1.2-0.5,1.2-1.1c0-0.6-0.5-1.2-1.1-1.2c-3-0.2-6.1,0.2-9,1.2  c-0.6,0.2-0.9,0.9-0.7,1.5C31.7,21.5,32.1,21.8,32.6,21.8" fill="#000000"/>
<path class="st0" d="M32.6,27.7c2.7-0.9,5.6-1.3,8.5-1.2c0.6,0,1.2-0.5,1.2-1.1c0-0.6-0.5-1.2-1.1-1.2c-3-0.2-6.1,0.2-9,1.2  c-0.6,0.2-0.9,0.9-0.7,1.5C31.7,27.4,32.1,27.7,32.6,27.7" fill="#000000"/>
<path class="st0" d="M23.8,14.8c-1.5-0.8-8.9-3.4-8.9-0.7c0,0.6,0.5,1.2,1.2,1.2c2.3,0,4.6,0.6,6.7,1.6c0.6,0.3,1.3,0,1.6-0.6  C24.5,15.7,24.3,15.1,23.8,14.8" fill="#000000"/>
<path class="st0" d="M23.8,20.7c-1.9-1-3.9-1.7-6-2c-0.6-0.1-1.2,0.4-1.3,1c-0.1,0.6,0.3,1.2,1,1.3c2,0.2,3.9,1.2,5.8,1.9  c0.7,0,1.2-0.6,1.2-1.2C24.4,21.3,24.2,20.9,23.8,20.7" fill="#000000"/>
<path class="st0" d="M23.8,26.5c-1.9-1-3.9-1.7-6-2c-0.6-0.1-1.2,0.4-1.3,1c-0.1,0.6,0.3,1.2,1,1.3c2,0.2,3.9,1.2,5.8,1.9  c0.7,0,1.2-0.6,1.2-1.2C24.4,27.1,24.2,26.7,23.8,26.5" fill="#000000"/>
<path class="st0" d="M68.8,51.1c-0.5,0-1.1,0-1.6,0.1c-0.7-5.1-5.3-8.7-10.4-8c-1,0.1-1.9,0.4-2.8,0.8V11.2c0-0.8-0.4-1.5-1.1-2  C45.1,4.2,35.1,4.1,27.2,9c-5-5.9-11.6-9.3-17.4-9C9.2,0,8.7,0.6,8.7,1.2V6C6,6.6,3.4,7.7,1.1,9.2C0.4,9.7,0,10.4,0,11.2v36  c0,1.3,1,2.3,2.3,2.3c0.4,0,0.8-0.1,1.2-0.3c7.2-4,16-3.6,22.8,1c0.3,0.2,0.8,0.3,1.1,0.1c-0.1,0.2-0.1,0.5-0.1,0.7h-1.3  c-0.6,0-1.2,0.5-1.2,1.2c0,0.6,0.5,1.2,1.2,1.2h1.3c1.5,10.7,16.8,10.7,18.3,0h3.2c1.6,10.7,16.8,10.7,18.3,0c0.5,0.1,1.1,0.1,1.6,0  c0.6,0,1.2-0.5,1.2-1.2C70,51.6,69.5,51.1,68.8,51.1 M44,46.9c1.9,0.4,3.8,1,5.5,1.9c-0.3,0.8-0.5,1.6-0.6,2.4h-3.2  C45.5,49.6,44.9,48.1,44,46.9 M51.6,11.2v34.4c-0.3,0.3-0.7,0.7-0.9,1.1c-3-1.5-6.4-2.4-9.8-2.6c-4-2.2-9-1.1-11.7,2.5  c-0.3,0.2-0.7,0.3-1,0.5v-36C35.3,6.5,44.5,6.6,51.6,11.2 M11,2.4C16,2.6,21.6,5.9,25.8,11v35.2c-4.4-4.5-9.8-7.3-14.8-7.5V2.4z   M2.3,47.2l0-36C4.3,9.9,6.4,9,8.7,8.4v31.5c0,0.6,0.5,1.2,1.2,1.2c0,0,0,0,0.1,0c3.5-0.2,7.6,1.3,11.2,4.1  C14.8,43.3,8.1,44,2.3,47.2 M36.5,59.2c-9.1-0.3-9.1-13.5,0-13.8C45.6,45.7,45.6,58.9,36.5,59.2 M58.1,59.2  c-9.1-0.3-9.1-13.5,0-13.8C67.2,45.7,67.2,58.9,58.1,59.2" fill="#000000"/>
</svg>